# xmcd CD database file
#
# Track frame offsets:
#	150
#	17433
#	35914
#	54797
#	77502
#	91381
#	105689
#	118703
#	136089
#	157147
#	170910
#	190427
#	210372
#	227085
#
# Disc length: 3329 seconds
#
# Revision: 0
# Processed by: cddbd v1.5.2PL0 Copyright (c) Steve Scherf et al.
# Submitted via: CDex 1.51
#
DISCID=b50cff0e
DTITLE=Hal Ketchum - Father Time
DYEAR=2008
DGENRE=Country
TTITLE0=Invisible
TTITLE1=Yesterday's Gone
TTITLE2=Millionaire's Wife
TTITLE3=Million Dollar Baby
TTITLE4=Ordinary Day
TTITLE5=Continental Farewell
TTITLE6=Surrounded By Love
TTITLE7=The Day He Called Your Name 
TTITLE8=The Preacher And Me
TTITLE9=Let Me Go
TTITLE10=Sparrow 
TTITLE11=Down Along The Guadalupe 
TTITLE12=Jersey Girl 
TTITLE13=Strangest Dreams - Hal Ketchum
EXTD=YEAR: 2008
EXTT0=
EXTT1=
EXTT2=
EXTT3=
EXTT4=
EXTT5=
EXTT6=
EXTT7=
EXTT8=
EXTT9=
EXTT10=
EXTT11=
EXTT12=
EXTT13=
PLAYORDER=
